<?xml version="1.0" encoding="UTF-8"?><!DOCTYPE svg PUBLIC "-//W3C//DTD SVG 1.1//EN" "http://www.w3.org/Graphics/SVG/1.1/DTD/svg11.dtd"><svg xmlns="http://www.w3.org/2000/svg" xmlns:xlink="http://www.w3.org/1999/xlink"><symbol id="chevron-down"><path d="M23.707 5.293a1 1 0 0 1 0 1.414l-11 11a1 1 0 0 1-1.414 0l-11-11a1 1 0 1 1 1.414-1.414L12 15.586 22.293 5.293a1 1 0 0 1 1.414 0Z"/></symbol><symbol id="close"><path d="M21.292 1.293a1.001 1.001 0 0 1 1.415 1.414L13.413 12l9.294 9.293a1.001 1.001 0 0 1-1.414 1.415L12 13.414l-9.293 9.294a1 1 0 0 1-1.414-1.414L10.585 12 1.292 2.707a1 1 0 0 1 1.414-1.414L12 10.585l9.293-9.292Z"/></symbol><symbol id="globe"><path d="M12 0c6.627 0 12 5.373 12 12s-5.373 12-12 12S0 18.627 0 12 5.373 0 12 0ZM9.244 12.923c.074 2.611.457 4.927 1.02 6.618.317.948.674 1.65 1.024 2.095.359.455.606.518.712.518.106 0 .353-.063.712-.518.35-.445.707-1.147 1.023-2.095.564-1.69.947-4.007 1.02-6.618h-5.51Zm-7.354 0c.38 4.223 3.346 7.697 7.302 8.834a11.3 11.3 0 0 1-.678-1.632c-.637-1.911-1.041-4.432-1.116-7.202H1.89Zm14.712 0c-.075 2.77-.479 5.29-1.116 7.202a11.288 11.288 0 0 1-.68 1.632c3.958-1.136 6.924-4.61 7.304-8.834h-5.508Zm-7.41-10.68C5.235 3.378 2.27 6.852 1.89 11.076h5.508c.075-2.77.479-5.29 1.116-7.202a11.3 11.3 0 0 1 .678-1.633ZM12 1.845c-.106 0-.353.063-.712.518-.35.445-.707 1.147-1.023 2.095-.564 1.69-.947 4.007-1.02 6.618h5.51c-.073-2.611-.456-4.927-1.02-6.618-.316-.948-.672-1.65-1.023-2.095-.359-.455-.606-.518-.712-.518Zm2.807.396c.254.49.481 1.04.68 1.633.636 1.911 1.04 4.432 1.115 7.202h5.508c-.38-4.223-3.346-7.699-7.303-8.835Z"/></symbol><symbol id="search"><path d="M10 0c5.523 0 10 4.477 10 10a9.957 9.957 0 0 1-2.258 6.328l5.965 5.965a1 1 0 1 1-1.414 1.414l-5.965-5.965A9.957 9.957 0 0 1 10 20C4.477 20 0 15.523 0 10S4.477 0 10 0Zm0 2a8 8 0 1 0 0 16 8 8 0 0 0 0-16Z"/></symbol><symbol id="shopping-bag"><path d="M4 22.067v-16h4c0-1.1.392-2.042 1.175-2.825C9.958 2.458 10.9 2.067 12 2.067s2.042.391 2.825 1.175C15.608 4.025 16 4.967 16 6.067h4v16H4Zm6-16h4c0-.55-.196-1.021-.587-1.412A1.927 1.927 0 0 0 12 4.067c-.55 0-1.02.196-1.412.588A1.923 1.923 0 0 0 10 6.067Zm-4 14h12v-12h-2v3h-2v-3h-4v3H8v-3H6v12Zm0 0v-12 12Z"/></symbol><symbol id="user"><path d="M21.75 12.067a9.75 9.75 0 1 0-16.331 7.19l.122.113a9.75 9.75 0 0 0 12.918 0l.122-.113a9.724 9.724 0 0 0 3.169-7.19Zm-18 0a8.25 8.25 0 1 1 14.419 5.475 7.425 7.425 0 0 0-3.385-2.691 4.5 4.5 0 1 0-5.568 0 7.424 7.424 0 0 0-3.385 2.69 8.213 8.213 0 0 1-2.081-5.474Zm5.25-.75a3 3 0 1 1 3 3 3.01 3.01 0 0 1-3-3Zm-2.053 7.265a6 6 0 0 1 10.106 0 8.231 8.231 0 0 1-10.106 0Z"/></symbol></svg>