<?xml version="1.0" encoding="UTF-8"?><!DOCTYPE svg PUBLIC "-//W3C//DTD SVG 1.1//EN" "http://www.w3.org/Graphics/SVG/1.1/DTD/svg11.dtd"><svg xmlns="http://www.w3.org/2000/svg" xmlns:xlink="http://www.w3.org/1999/xlink"><symbol id="linkedin"><path fill-rule="evenodd" clip-rule="evenodd" d="M2 3.67A1.67 1.67 0 0 1 3.67 2h16.657A1.67 1.67 0 0 1 22 3.67v16.657A1.67 1.67 0 0 1 20.328 22H3.671A1.67 1.67 0 0 1 2 20.328V3.671Zm7.916 5.955h2.708v1.36c.391-.781 1.391-1.485 2.894-1.485 2.881 0 3.564 1.557 3.564 4.415v5.292h-2.916v-4.642c0-1.627-.39-2.545-1.383-2.545-1.377 0-1.95.99-1.95 2.546v4.641H9.916V9.625Zm-5 9.458h2.917V9.5H4.916v9.582ZM8.25 6.375a1.875 1.875 0 1 1-3.75.082 1.875 1.875 0 0 1 3.75-.082Z"/></symbol><symbol id="twitter"><path d="M22 5.929a8.217 8.217 0 0 1-2.356.645 4.114 4.114 0 0 0 1.804-2.27 8.192 8.192 0 0 1-2.606.995 4.104 4.104 0 0 0-6.992 3.743 11.653 11.653 0 0 1-8.457-4.288 4.105 4.105 0 0 0 1.27 5.479 4.094 4.094 0 0 1-1.859-.513v.053a4.105 4.105 0 0 0 3.292 4.023 4.133 4.133 0 0 1-1.853.07 4.105 4.105 0 0 0 3.833 2.85 8.234 8.234 0 0 1-5.097 1.756A8.35 8.35 0 0 1 2 18.415a11.605 11.605 0 0 0 6.29 1.844c7.548 0 11.674-6.252 11.674-11.675 0-.176-.004-.354-.012-.53a8.341 8.341 0 0 0 2.046-2.123L22 5.93Z"/></symbol></svg>