<?xml version="1.0" encoding="UTF-8"?><!DOCTYPE svg PUBLIC "-//W3C//DTD SVG 1.1//EN" "http://www.w3.org/Graphics/SVG/1.1/DTD/svg11.dtd"><svg xmlns="http://www.w3.org/2000/svg" xmlns:xlink="http://www.w3.org/1999/xlink"><symbol id="close"><path d="m20.578 6.977-2.91-2.91-5.09 5.09-5.09-5.09-2.91 2.91 5.09 5.09-5.09 5.09 2.91 2.91 5.09-5.09 5.09 5.09 2.91-2.91-5.09-5.09 5.09-5.09Z"/></symbol><symbol id="linkedin"><path fill-rule="evenodd" clip-rule="evenodd" d="M2 3.67A1.67 1.67 0 0 1 3.67 2h16.657A1.67 1.67 0 0 1 22 3.67v16.657A1.67 1.67 0 0 1 20.328 22H3.671A1.67 1.67 0 0 1 2 20.328V3.671Zm7.916 5.955h2.708v1.36c.391-.781 1.391-1.485 2.894-1.485 2.881 0 3.564 1.557 3.564 4.415v5.292h-2.916v-4.642c0-1.627-.39-2.545-1.383-2.545-1.377 0-1.95.99-1.95 2.546v4.641H9.916V9.625Zm-5 9.458h2.917V9.5H4.916v9.582ZM8.25 6.375a1.875 1.875 0 1 1-3.75.082 1.875 1.875 0 0 1 3.75-.082Z"/></symbol><symbol id="search"><path fill-rule="evenodd" clip-rule="evenodd" d="M23.48 16.947a8.533 8.533 0 1 1-17.067 0 8.533 8.533 0 0 1 17.067 0Zm-.54 8.879a11.903 11.903 0 0 1-7.993 3.067C8.349 28.893 3 23.545 3 16.947S8.349 5 14.947 5c6.598 0 11.946 5.349 11.946 11.947a11.89 11.89 0 0 1-1.757 6.24l6.838 4.559a1.707 1.707 0 0 1-1.894 2.84l-7.14-4.76Z"/></symbol><symbol id="shopping-bag"><path d="M4 22.067v-16h4c0-1.1.392-2.042 1.175-2.825C9.958 2.458 10.9 2.067 12 2.067s2.042.391 2.825 1.175C15.608 4.025 16 4.967 16 6.067h4v16H4Zm6-16h4c0-.55-.196-1.021-.587-1.412A1.927 1.927 0 0 0 12 4.067c-.55 0-1.02.196-1.412.588A1.923 1.923 0 0 0 10 6.067Zm-4 14h12v-12h-2v3h-2v-3h-4v3H8v-3H6v12Zm0 0v-12 12Z"/></symbol><symbol id="twitter"><path d="M22 5.929a8.217 8.217 0 0 1-2.356.645 4.114 4.114 0 0 0 1.804-2.27 8.192 8.192 0 0 1-2.606.995 4.104 4.104 0 0 0-6.992 3.743 11.653 11.653 0 0 1-8.457-4.288 4.105 4.105 0 0 0 1.27 5.479 4.094 4.094 0 0 1-1.859-.513v.053a4.105 4.105 0 0 0 3.292 4.023 4.133 4.133 0 0 1-1.853.07 4.105 4.105 0 0 0 3.833 2.85 8.234 8.234 0 0 1-5.097 1.756A8.35 8.35 0 0 1 2 18.415a11.605 11.605 0 0 0 6.29 1.844c7.548 0 11.674-6.252 11.674-11.675 0-.176-.004-.354-.012-.53a8.341 8.341 0 0 0 2.046-2.123L22 5.93Z"/></symbol><symbol id="user"><path d="M21.75 12.067a9.75 9.75 0 1 0-16.331 7.19l.122.113a9.75 9.75 0 0 0 12.918 0l.122-.113a9.724 9.724 0 0 0 3.169-7.19Zm-18 0a8.25 8.25 0 1 1 14.419 5.475 7.425 7.425 0 0 0-3.385-2.691 4.5 4.5 0 1 0-5.568 0 7.424 7.424 0 0 0-3.385 2.69 8.213 8.213 0 0 1-2.081-5.474Zm5.25-.75a3 3 0 1 1 3 3 3.01 3.01 0 0 1-3-3Zm-2.053 7.265a6 6 0 0 1 10.106 0 8.231 8.231 0 0 1-10.106 0Z"/></symbol></svg>