<svg width="24" height="24" viewBox="0 0 24 24" fill="none" xmlns="http://www.w3.org/2000/svg">
<path d="M21.2922 1.29266C21.6828 0.902139 22.3168 0.902139 22.7073 1.29266C23.0975 1.68311 23.0975 2.31624 22.7073 2.70673L13.4133 11.9997L22.7073 21.2927C23.0978 21.6832 23.0978 22.3172 22.7073 22.7077C22.3169 23.0981 21.6838 23.0978 21.2932 22.7077L11.9993 13.4138L2.7063 22.7077C2.31582 23.0979 1.68269 23.0979 1.29224 22.7077C0.9018 22.3173 0.901976 21.6842 1.29224 21.2936L10.5852 11.9997L1.29224 2.70673C0.901908 2.3162 0.901809 1.68313 1.29224 1.29266C1.6827 0.9022 2.31576 0.902323 2.7063 1.29266L11.9993 10.5847L21.2922 1.29266Z" fill="black"/>
</svg>
