<svg width="24" height="24" viewBox="0 0 24 24" fill="none" xmlns="http://www.w3.org/2000/svg">
<path d="M12 0C18.6274 0 24 5.37258 24 12C24 18.6274 18.6274 24 12 24C5.37258 24 0 18.6274 0 12C3.22129e-08 5.37258 5.37258 3.22139e-08 12 0ZM9.24414 12.9229C9.31797 15.5343 9.70111 17.8503 10.2646 19.541C10.5808 20.4893 10.9375 21.1909 11.2881 21.6357C11.6467 22.0906 11.8943 22.1543 12 22.1543C12.1057 22.1543 12.3533 22.0906 12.7119 21.6357C13.0625 21.1909 13.4192 20.4893 13.7354 19.541C14.2989 17.8503 14.682 15.5343 14.7559 12.9229H9.24414ZM1.88965 12.9229C2.27021 17.1461 5.23554 20.6203 9.19238 21.7568C8.93829 21.2682 8.71146 20.7183 8.51367 20.125C7.87655 18.2136 7.4725 15.6925 7.39844 12.9229H1.88965ZM16.6016 12.9229C16.5275 15.6925 16.1234 18.2136 15.4863 20.125C15.2885 20.7184 15.0608 21.2681 14.8066 21.7568C18.7639 20.6206 21.7298 17.1464 22.1104 12.9229H16.6016ZM9.19238 2.24219C5.23541 3.37865 2.27022 6.85383 1.88965 11.0771H7.39844C7.4725 8.30747 7.87655 5.78636 8.51367 3.875C8.71156 3.2814 8.93812 2.73099 9.19238 2.24219ZM12 1.8457C11.8943 1.8457 11.6467 1.90944 11.2881 2.36426C10.9375 2.80911 10.5808 3.51067 10.2646 4.45898C9.70111 6.14967 9.31797 8.46569 9.24414 11.0771H14.7559C14.682 8.46569 14.2989 6.14967 13.7354 4.45898C13.4192 3.51067 13.0625 2.80911 12.7119 2.36426C12.3533 1.90944 12.1057 1.8457 12 1.8457ZM14.8066 2.24219C15.061 2.73108 15.2884 3.28124 15.4863 3.875C16.1234 5.78636 16.5275 8.30747 16.6016 11.0771H22.1104C21.7298 6.85351 18.7641 3.37838 14.8066 2.24219Z" fill="black"/>
</svg>
