<svg width="37" height="36" viewBox="0 0 37 36" fill="none" xmlns="http://www.w3.org/2000/svg">
<path fill-rule="evenodd" clip-rule="evenodd" d="M23.4799 16.9466C23.4799 21.6594 19.6594 25.4799 14.9466 25.4799C10.2338 25.4799 6.41332 21.6594 6.41332 16.9466C6.41332 12.2338 10.2338 8.41332 14.9466 8.41332C19.6594 8.41332 23.4799 12.2338 23.4799 16.9466ZM22.9398 25.8255C20.8228 27.7325 18.0202 28.8932 14.9466 28.8932C8.34869 28.8932 3 23.5446 3 16.9466C3 10.3487 8.34869 5 14.9466 5C21.5446 5 26.8932 10.3487 26.8932 16.9466C26.8932 19.2339 26.2505 21.371 25.1357 23.1872L31.9736 27.7457C32.7579 28.2686 32.9698 29.3282 32.447 30.1125C31.9241 30.8967 30.8645 31.1086 30.0803 30.5858L22.9398 25.8255Z" fill="black"/>
</svg>
