<svg width="24" height="24" viewBox="0 0 24 24" fill="none" xmlns="http://www.w3.org/2000/svg">
<path d="M10 0C15.5228 0 20 4.47715 20 10C20 12.4013 19.1529 14.6043 17.7422 16.3281L23.707 22.293C24.0976 22.6835 24.0976 23.3165 23.707 23.707C23.3165 24.0976 22.6835 24.0976 22.293 23.707L16.3281 17.7422C14.6043 19.1529 12.4013 20 10 20C4.47715 20 0 15.5228 0 10C0 4.47715 4.47715 0 10 0ZM10 2C5.58172 2 2 5.58172 2 10C2 14.4183 5.58172 18 10 18C14.4183 18 18 14.4183 18 10C18 5.58172 14.4183 2 10 2Z" fill="black"/>
</svg>
