<svg width="24" height="25" viewBox="0 0 24 25" fill="none" xmlns="http://www.w3.org/2000/svg">
<path d="M4 22.0667V6.06665H8C8 4.96665 8.39167 4.02498 9.175 3.24165C9.95833 2.45832 10.9 2.06665 12 2.06665C13.1 2.06665 14.0417 2.45832 14.825 3.24165C15.6083 4.02498 16 4.96665 16 6.06665H20V22.0667H4ZM10 6.06665H14C14 5.51665 13.8043 5.04598 13.413 4.65465C13.021 4.26265 12.55 4.06665 12 4.06665C11.45 4.06665 10.9793 4.26265 10.588 4.65465C10.196 5.04598 10 5.51665 10 6.06665ZM6 20.0667H18V8.06665H16V11.0667H14V8.06665H10V11.0667H8V8.06665H6V20.0667ZM6 20.0667V8.06665V20.0667Z" fill="black"/>
</svg>
