<svg width="24" height="25" viewBox="0 0 24 25" fill="none" xmlns="http://www.w3.org/2000/svg">
<path d="M21.75 12.0666C21.7505 10.4447 21.3464 8.84835 20.5744 7.42206C19.8023 5.99576 18.6866 4.78459 17.3284 3.89825C15.9701 3.01191 14.4122 2.47839 12.7958 2.34601C11.1794 2.21363 9.55542 2.48658 8.07107 3.14014C6.58672 3.7937 5.28886 4.80721 4.29502 6.08889C3.30118 7.37057 2.64276 8.87993 2.3794 10.4803C2.11604 12.0806 2.25606 13.7213 2.78677 15.2539C3.31748 16.7865 4.22212 18.1624 5.41875 19.2572L5.54063 19.3697C7.32305 20.9461 9.62046 21.8163 12 21.8163C14.3795 21.8163 16.6769 20.9461 18.4594 19.3697L18.5813 19.2572C19.5807 18.3451 20.3788 17.2345 20.9245 15.9963C21.4701 14.7581 21.7513 13.4197 21.75 12.0666ZM3.75 12.0666C3.74951 10.7304 4.07357 9.41409 4.69431 8.23085C5.31506 7.04761 6.21392 6.03285 7.31359 5.27383C8.41326 4.51481 9.68083 4.03425 11.0073 3.87347C12.3338 3.71269 13.6795 3.87651 14.9286 4.35083C16.1778 4.82515 17.293 5.59579 18.1785 6.59647C19.0639 7.59715 19.6931 8.79792 20.0118 10.0955C20.3306 11.3931 20.3294 12.7487 20.0083 14.0458C19.6873 15.3428 19.056 16.5425 18.1688 17.5416C17.3325 16.3288 16.1544 15.3922 14.7844 14.851C15.5192 14.2722 16.0554 13.4788 16.3184 12.5812C16.5815 11.6835 16.5582 10.7262 16.252 9.8424C15.9457 8.95858 15.3716 8.19216 14.6096 7.64972C13.8475 7.10729 12.9354 6.81581 12 6.81581C11.0646 6.81581 10.1525 7.10729 9.39043 7.64972C8.62839 8.19216 8.05432 8.95858 7.74805 9.8424C7.44178 10.7262 7.41855 11.6835 7.68157 12.5812C7.94459 13.4788 8.4808 14.2722 9.21563 14.851C7.84557 15.3922 6.66749 16.3288 5.83125 17.5416C4.48816 16.0344 3.74725 14.0853 3.75 12.0666ZM9 11.3166C9 10.7232 9.17595 10.1432 9.50559 9.64987C9.83524 9.15652 10.3038 8.772 10.852 8.54494C11.4001 8.31787 12.0033 8.25846 12.5853 8.37422C13.1672 8.48998 13.7018 8.7757 14.1213 9.19526C14.5409 9.61481 14.8266 10.1494 14.9424 10.7313C15.0581 11.3132 14.9987 11.9164 14.7716 12.4646C14.5446 13.0128 14.1601 13.4813 13.6667 13.811C13.1734 14.1406 12.5933 14.3166 12 14.3166C11.2051 14.3141 10.4435 13.9972 9.88141 13.4352C9.31934 12.8731 9.00247 12.1115 9 11.3166ZM6.94688 18.5822C7.48961 17.7345 8.23691 17.0369 9.11995 16.5537C10.003 16.0706 10.9934 15.8173 12 15.8173C13.0066 15.8173 13.997 16.0706 14.88 16.5537C15.7631 17.0369 16.5104 17.7345 17.0531 18.5822C15.6083 19.7058 13.8303 20.3158 12 20.3158C10.1697 20.3158 8.39167 19.7058 6.94688 18.5822Z" fill="black"/>
</svg>
